<svg xmlns="http://www.w3.org/2000/svg" xmlns:xlink="http://www.w3.org/1999/xlink" width="500" zoomAndPan="magnify" viewBox="0 0 375 374.999991" height="500" preserveAspectRatio="xMidYMid meet" version="1.2"><defs><clipPath id="f23a090655"><path d="M 202 110 L 336 110 L 336 224 L 202 224 Z M 202 110 "/></clipPath><clipPath id="560d97e577"><path d="M 264.003906 71.875 L 407.515625 140.324219 L 332.289062 298.050781 L 188.773438 229.605469 Z M 264.003906 71.875 "/></clipPath><clipPath id="febc680a01"><path d="M 264.003906 71.875 L 407.515625 140.324219 L 332.289062 298.050781 L 188.773438 229.605469 Z M 264.003906 71.875 "/></clipPath><clipPath id="265404627e"><path d="M 198 134 L 363 134 L 363 235 L 198 235 Z M 198 134 "/></clipPath><clipPath id="5a9158620a"><path d="M 264.003906 71.875 L 407.515625 140.324219 L 332.289062 298.050781 L 188.773438 229.605469 Z M 264.003906 71.875 "/></clipPath><clipPath id="94caea396e"><path d="M 264.003906 71.875 L 407.515625 140.324219 L 332.289062 298.050781 L 188.773438 229.605469 Z M 264.003906 71.875 "/></clipPath><clipPath id="4a5a5cce65"><path d="M 206 88 L 309 88 L 309 211 L 206 211 Z M 206 88 "/></clipPath><clipPath id="9a88a312b1"><path d="M 264.003906 71.875 L 407.515625 140.324219 L 332.289062 298.050781 L 188.773438 229.605469 Z M 264.003906 71.875 "/></clipPath><clipPath id="701a4fdf3a"><path d="M 264.003906 71.875 L 407.515625 140.324219 L 332.289062 298.050781 L 188.773438 229.605469 Z M 264.003906 71.875 "/></clipPath><clipPath id="a3a536fb18"><path d="M 33 105 L 173 105 L 173 224 L 33 224 Z M 33 105 "/></clipPath><clipPath id="c30dce9473"><path d="M -40.75 136.121094 L 108.484375 65.738281 L 185.90625 229.898438 L 36.667969 300.277344 Z M -40.75 136.121094 "/></clipPath><clipPath id="ff551f9194"><path d="M 108.558594 65.703125 L -40.675781 136.085938 L 36.742188 300.242188 L 185.980469 229.863281 Z M 108.558594 65.703125 "/></clipPath><clipPath id="304a2ab63e"><path d="M 5 129 L 177 129 L 177 235 L 5 235 Z M 5 129 "/></clipPath><clipPath id="48744e7508"><path d="M -40.75 136.121094 L 108.484375 65.738281 L 185.90625 229.898438 L 36.667969 300.277344 Z M -40.75 136.121094 "/></clipPath><clipPath id="ae56c2bcc8"><path d="M 108.558594 65.703125 L -40.675781 136.085938 L 36.742188 300.242188 L 185.980469 229.863281 Z M 108.558594 65.703125 "/></clipPath><clipPath id="de9fa65a2b"><path d="M 61 83 L 168 83 L 168 211 L 61 211 Z M 61 83 "/></clipPath><clipPath id="38dfedd276"><path d="M -40.75 136.121094 L 108.484375 65.738281 L 185.90625 229.898438 L 36.667969 300.277344 Z M -40.75 136.121094 "/></clipPath><clipPath id="bf99c44243"><path d="M 108.558594 65.703125 L -40.675781 136.085938 L 36.742188 300.242188 L 185.980469 229.863281 Z M 108.558594 65.703125 "/></clipPath><clipPath id="322aeb2cd0"><path d="M 121.160156 13.511719 L 229 13.511719 L 229 49 L 121.160156 49 Z M 121.160156 13.511719 "/></clipPath><clipPath id="1677c877f0"><path d="M 144 47 L 232.910156 47 L 232.910156 177.011719 L 144 177.011719 Z M 144 47 "/></clipPath></defs><g id="cb6ea8ea53"><rect x="0" width="375" y="0" height="374.999991" style="fill:#ffffff;fill-opacity:1;stroke:none;"/><rect x="0" width="375" y="0" height="374.999991" style="fill:#000000;fill-opacity:1;stroke:none;"/><g clip-rule="nonzero" clip-path="url(#f23a090655)"><g clip-rule="nonzero" clip-path="url(#560d97e577)"><g clip-rule="nonzero" clip-path="url(#febc680a01)"><path style=" stroke:none;fill-rule:nonzero;fill:#ffffff;fill-opacity:1;" d="M 335.28125 211.519531 L 326.644531 110.8125 C 326.644531 110.8125 316.53125 112.027344 304.570312 115.75 L 305.4375 125.832031 C 308.664062 125.675781 312.070312 125.753906 315.644531 126.136719 L 323.09375 199.109375 C 323.09375 199.109375 240.363281 189.582031 202.144531 223.46875 C 202.144531 223.46875 249.902344 194.804688 335.28125 211.519531 "/></g></g></g><g clip-rule="nonzero" clip-path="url(#265404627e)"><g clip-rule="nonzero" clip-path="url(#5a9158620a)"><g clip-rule="nonzero" clip-path="url(#94caea396e)"><path style=" stroke:none;fill-rule:nonzero;fill:#ffffff;fill-opacity:1;" d="M 353.585938 134.007812 C 353.585938 134.007812 343.476562 135.222656 331.519531 138.945312 L 332.382812 149.027344 C 335.609375 148.871094 339.015625 148.945312 342.589844 149.328125 L 350.035156 222.304688 C 350.035156 222.304688 252.015625 200.253906 198.128906 234.074219 C 198.128906 234.074219 257.539062 213.265625 362.226562 234.710938 L 353.585938 134.007812 "/></g></g></g><g clip-rule="nonzero" clip-path="url(#4a5a5cce65)"><g clip-rule="nonzero" clip-path="url(#9a88a312b1)"><g clip-rule="nonzero" clip-path="url(#701a4fdf3a)"><path style=" stroke:none;fill-rule:nonzero;fill:#ffffff;fill-opacity:1;" d="M 206.875 210.972656 C 206.875 210.972656 247.828125 178.40625 308.476562 189.679688 L 299.835938 88.972656 C 299.835938 88.972656 254.242188 94.445312 242.152344 117.796875 C 242.152344 117.796875 260.121094 101.21875 288.835938 104.292969 L 296.285156 177.265625 C 296.285156 177.265625 237.632812 175.199219 206.875 210.972656 "/></g></g></g><g clip-rule="nonzero" clip-path="url(#a3a536fb18)"><g clip-rule="nonzero" clip-path="url(#c30dce9473)"><g clip-rule="nonzero" clip-path="url(#ff551f9194)"><path style=" stroke:none;fill-rule:nonzero;fill:#ffffff;fill-opacity:1;" d="M 33.894531 210.417969 L 43.320312 105.859375 C 43.320312 105.859375 53.816406 107.171875 66.222656 111.089844 L 65.277344 121.558594 C 61.929688 121.378906 58.390625 121.445312 54.675781 121.828125 L 46.609375 197.582031 C 46.609375 197.582031 132.578125 188.0625 172.117188 223.433594 C 172.117188 223.433594 122.644531 193.445312 33.894531 210.417969 "/></g></g></g><g clip-rule="nonzero" clip-path="url(#304a2ab63e)"><g clip-rule="nonzero" clip-path="url(#48744e7508)"><g clip-rule="nonzero" clip-path="url(#ae56c2bcc8)"><path style=" stroke:none;fill-rule:nonzero;fill:#ffffff;fill-opacity:1;" d="M 15.230469 129.828125 C 15.230469 129.828125 25.726562 131.136719 38.128906 135.058594 L 37.1875 145.523438 C 33.835938 145.347656 30.300781 145.410156 26.582031 145.792969 L 18.519531 221.550781 C 18.519531 221.550781 120.425781 199.09375 176.242188 234.464844 C 176.242188 234.464844 114.628906 212.582031 5.800781 234.386719 L 15.230469 129.828125 "/></g></g></g><g clip-rule="nonzero" clip-path="url(#de9fa65a2b)"><g clip-rule="nonzero" clip-path="url(#38dfedd276)"><g clip-rule="nonzero" clip-path="url(#bf99c44243)"><path style=" stroke:none;fill-rule:nonzero;fill:#ffffff;fill-opacity:1;" d="M 167.261719 210.429688 C 167.261719 210.429688 124.875 176.421875 61.832031 187.855469 L 71.261719 83.296875 C 71.261719 83.296875 118.59375 89.1875 131.042969 113.5 C 131.042969 113.5 112.453125 96.195312 82.617188 99.261719 L 74.550781 175.019531 C 74.550781 175.019531 135.476562 173.136719 167.261719 210.429688 "/></g></g></g><g clip-rule="nonzero" clip-path="url(#322aeb2cd0)"><path style=" stroke:none;fill-rule:nonzero;fill:#00adef;fill-opacity:1;" d="M 228.652344 31.816406 C 228.539062 33.597656 227.292969 35.109375 225.613281 35.71875 L 190.429688 48.464844 C 189.941406 48.636719 189.433594 48.726562 188.921875 48.726562 C 188.414062 48.726562 187.90625 48.636719 187.421875 48.464844 L 154.679688 36.605469 C 153.644531 36.230469 153.140625 35.042969 153.625 34.023438 C 154.042969 33.132812 155.113281 32.753906 156.039062 33.089844 L 188.703125 44.921875 C 188.847656 44.972656 189.003906 44.972656 189.144531 44.921875 L 224.464844 32.125 C 224.8125 32 224.890625 31.730469 224.890625 31.523438 C 224.894531 31.355469 224.84375 31.050781 224.476562 30.914062 L 189.15625 17.425781 C 189.007812 17.367188 188.839844 17.367188 188.691406 17.425781 L 164.269531 26.75 C 165.136719 27.0625 166.03125 27.398438 166.9375 27.765625 C 179.898438 32.984375 188.773438 28.597656 191.96875 26.492188 C 192.28125 26.28125 192.640625 26.183594 193 26.183594 C 193.519531 26.183594 194.035156 26.402344 194.40625 26.816406 C 195.167969 27.679688 194.988281 29.011719 194.023438 29.644531 C 190.136719 32.191406 179.996094 37.085938 165.53125 31.261719 C 145.269531 23.105469 137.300781 30.101562 134.773438 33.585938 L 137.089844 34.992188 L 131.402344 44.164062 C 129.960938 46.488281 126.945312 47.261719 124.5625 45.921875 C 122.042969 44.503906 121.207031 41.277344 122.714844 38.8125 L 128.316406 29.675781 L 131.585938 31.65625 C 134.3125 27.890625 141.808594 20.960938 158.351562 24.980469 L 187.351562 13.90625 C 188.363281 13.519531 189.484375 13.519531 190.5 13.90625 L 225.820312 27.394531 C 227.644531 28.085938 228.78125 29.84375 228.652344 31.816406 Z M 228.652344 31.816406 "/></g><g clip-rule="nonzero" clip-path="url(#1677c877f0)"><path style=" stroke:none;fill-rule:nonzero;fill:#00adef;fill-opacity:1;" d="M 205.851562 47.199219 L 190.429688 52.785156 C 189.941406 52.960938 189.433594 53.050781 188.925781 53.050781 C 188.414062 53.050781 187.90625 52.960938 187.421875 52.785156 L 171.457031 47.003906 C 164.265625 71.875 144.570312 91.964844 144.570312 91.964844 C 150.253906 98.628906 155.824219 107.148438 161.042969 116.628906 L 176.855469 150.742188 C 179.804688 158.308594 184.53125 169.917969 186.714844 177.015625 L 186.222656 140.828125 C 186.46875 135.464844 186.476562 108.445312 186.34375 96.59375 C 184.621094 95.71875 183.4375 93.933594 183.4375 91.871094 C 183.4375 88.980469 185.75 86.632812 188.625 86.574219 C 191.5 86.632812 193.8125 88.980469 193.8125 91.871094 C 193.8125 93.933594 192.632812 95.71875 190.910156 96.59375 C 190.773438 108.445312 190.785156 135.464844 191.027344 140.828125 L 190.535156 177.015625 C 192.722656 169.914062 197.445312 158.308594 200.394531 150.742188 L 216.210938 116.628906 C 221.425781 107.148438 227 98.628906 232.679688 91.964844 C 232.679688 91.964844 213.089844 71.980469 205.851562 47.199219 Z M 205.851562 47.199219 "/></g><g style="fill:#ffffff;fill-opacity:1;"><g transform="translate(91.703332, 259.57116)"><path style="stroke:none" d="M 2.015625 -12.390625 L 3.328125 -12.390625 L 3.328125 -1.140625 L 10.265625 -1.140625 L 10.265625 0 L 2.015625 0 Z M 2.015625 -12.390625 "/></g></g><g style="fill:#ffffff;fill-opacity:1;"><g transform="translate(104.957867, 259.57116)"><path style="stroke:none" d="M 7.4375 0.109375 C 6.207031 0.109375 5.09375 -0.164062 4.09375 -0.71875 C 3.101562 -1.269531 2.328125 -2.019531 1.765625 -2.96875 C 1.203125 -3.925781 0.921875 -5.003906 0.921875 -6.203125 C 0.921875 -7.390625 1.203125 -8.460938 1.765625 -9.421875 C 2.328125 -10.378906 3.101562 -11.128906 4.09375 -11.671875 C 5.09375 -12.222656 6.207031 -12.5 7.4375 -12.5 C 8.664062 -12.5 9.769531 -12.226562 10.75 -11.6875 C 11.738281 -11.144531 12.515625 -10.390625 13.078125 -9.421875 C 13.648438 -8.460938 13.9375 -7.390625 13.9375 -6.203125 C 13.9375 -5.003906 13.648438 -3.921875 13.078125 -2.953125 C 12.515625 -1.992188 11.738281 -1.242188 10.75 -0.703125 C 9.769531 -0.160156 8.664062 0.109375 7.4375 0.109375 Z M 7.4375 -1.0625 C 8.414062 -1.0625 9.300781 -1.28125 10.09375 -1.71875 C 10.882812 -2.164062 11.503906 -2.78125 11.953125 -3.5625 C 12.398438 -4.351562 12.625 -5.234375 12.625 -6.203125 C 12.625 -7.160156 12.398438 -8.03125 11.953125 -8.8125 C 11.503906 -9.601562 10.882812 -10.21875 10.09375 -10.65625 C 9.300781 -11.101562 8.414062 -11.328125 7.4375 -11.328125 C 6.457031 -11.328125 5.566406 -11.101562 4.765625 -10.65625 C 3.972656 -10.21875 3.347656 -9.601562 2.890625 -8.8125 C 2.441406 -8.03125 2.21875 -7.160156 2.21875 -6.203125 C 2.21875 -5.234375 2.441406 -4.351562 2.890625 -3.5625 C 3.347656 -2.78125 3.972656 -2.164062 4.765625 -1.71875 C 5.566406 -1.28125 6.457031 -1.0625 7.4375 -1.0625 Z M 7.4375 -1.0625 "/></g></g><g style="fill:#ffffff;fill-opacity:1;"><g transform="translate(122.636218, 259.57116)"><path style="stroke:none" d="M 7.4375 0.109375 C 6.207031 0.109375 5.09375 -0.164062 4.09375 -0.71875 C 3.101562 -1.269531 2.328125 -2.019531 1.765625 -2.96875 C 1.203125 -3.925781 0.921875 -5.003906 0.921875 -6.203125 C 0.921875 -7.390625 1.203125 -8.460938 1.765625 -9.421875 C 2.328125 -10.378906 3.101562 -11.128906 4.09375 -11.671875 C 5.09375 -12.222656 6.207031 -12.5 7.4375 -12.5 C 8.664062 -12.5 9.769531 -12.226562 10.75 -11.6875 C 11.738281 -11.144531 12.515625 -10.390625 13.078125 -9.421875 C 13.648438 -8.460938 13.9375 -7.390625 13.9375 -6.203125 C 13.9375 -5.003906 13.648438 -3.921875 13.078125 -2.953125 C 12.515625 -1.992188 11.738281 -1.242188 10.75 -0.703125 C 9.769531 -0.160156 8.664062 0.109375 7.4375 0.109375 Z M 7.4375 -1.0625 C 8.414062 -1.0625 9.300781 -1.28125 10.09375 -1.71875 C 10.882812 -2.164062 11.503906 -2.78125 11.953125 -3.5625 C 12.398438 -4.351562 12.625 -5.234375 12.625 -6.203125 C 12.625 -7.160156 12.398438 -8.03125 11.953125 -8.8125 C 11.503906 -9.601562 10.882812 -10.21875 10.09375 -10.65625 C 9.300781 -11.101562 8.414062 -11.328125 7.4375 -11.328125 C 6.457031 -11.328125 5.566406 -11.101562 4.765625 -10.65625 C 3.972656 -10.21875 3.347656 -9.601562 2.890625 -8.8125 C 2.441406 -8.03125 2.21875 -7.160156 2.21875 -6.203125 C 2.21875 -5.234375 2.441406 -4.351562 2.890625 -3.5625 C 3.347656 -2.78125 3.972656 -2.164062 4.765625 -1.71875 C 5.566406 -1.28125 6.457031 -1.0625 7.4375 -1.0625 Z M 7.4375 -1.0625 "/></g></g><g style="fill:#ffffff;fill-opacity:1;"><g transform="translate(140.314569, 259.57116)"><path style="stroke:none" d="M 6.65625 -12.390625 C 8.238281 -12.390625 9.476562 -12.007812 10.375 -11.25 C 11.269531 -10.5 11.71875 -9.460938 11.71875 -8.140625 C 11.71875 -6.816406 11.269531 -5.78125 10.375 -5.03125 C 9.476562 -4.28125 8.238281 -3.90625 6.65625 -3.90625 L 3.328125 -3.90625 L 3.328125 0 L 2.015625 0 L 2.015625 -12.390625 Z M 6.625 -5.0625 C 7.851562 -5.0625 8.789062 -5.328125 9.4375 -5.859375 C 10.082031 -6.398438 10.40625 -7.160156 10.40625 -8.140625 C 10.40625 -9.140625 10.082031 -9.910156 9.4375 -10.453125 C 8.789062 -10.992188 7.851562 -11.265625 6.625 -11.265625 L 3.328125 -11.265625 L 3.328125 -5.0625 Z M 6.625 -5.0625 "/></g></g><g style="fill:#ffffff;fill-opacity:1;"><g transform="translate(155.851788, 259.57116)"><path style="stroke:none" d=""/></g></g><g style="fill:#ffffff;fill-opacity:1;"><g transform="translate(163.319972, 259.57116)"><path style="stroke:none" d="M 6.265625 -4.28125 L 6.265625 0 L 4.96875 0 L 4.96875 -4.28125 L 0.015625 -12.390625 L 1.421875 -12.390625 L 5.671875 -5.4375 L 9.90625 -12.390625 L 11.21875 -12.390625 Z M 6.265625 -4.28125 "/></g></g><g style="fill:#ffffff;fill-opacity:1;"><g transform="translate(177.388491, 259.57116)"><path style="stroke:none" d="M 7.4375 0.109375 C 6.207031 0.109375 5.09375 -0.164062 4.09375 -0.71875 C 3.101562 -1.269531 2.328125 -2.019531 1.765625 -2.96875 C 1.203125 -3.925781 0.921875 -5.003906 0.921875 -6.203125 C 0.921875 -7.390625 1.203125 -8.460938 1.765625 -9.421875 C 2.328125 -10.378906 3.101562 -11.128906 4.09375 -11.671875 C 5.09375 -12.222656 6.207031 -12.5 7.4375 -12.5 C 8.664062 -12.5 9.769531 -12.226562 10.75 -11.6875 C 11.738281 -11.144531 12.515625 -10.390625 13.078125 -9.421875 C 13.648438 -8.460938 13.9375 -7.390625 13.9375 -6.203125 C 13.9375 -5.003906 13.648438 -3.921875 13.078125 -2.953125 C 12.515625 -1.992188 11.738281 -1.242188 10.75 -0.703125 C 9.769531 -0.160156 8.664062 0.109375 7.4375 0.109375 Z M 7.4375 -1.0625 C 8.414062 -1.0625 9.300781 -1.28125 10.09375 -1.71875 C 10.882812 -2.164062 11.503906 -2.78125 11.953125 -3.5625 C 12.398438 -4.351562 12.625 -5.234375 12.625 -6.203125 C 12.625 -7.160156 12.398438 -8.03125 11.953125 -8.8125 C 11.503906 -9.601562 10.882812 -10.21875 10.09375 -10.65625 C 9.300781 -11.101562 8.414062 -11.328125 7.4375 -11.328125 C 6.457031 -11.328125 5.566406 -11.101562 4.765625 -10.65625 C 3.972656 -10.21875 3.347656 -9.601562 2.890625 -8.8125 C 2.441406 -8.03125 2.21875 -7.160156 2.21875 -6.203125 C 2.21875 -5.234375 2.441406 -4.351562 2.890625 -3.5625 C 3.347656 -2.78125 3.972656 -2.164062 4.765625 -1.71875 C 5.566406 -1.28125 6.457031 -1.0625 7.4375 -1.0625 Z M 7.4375 -1.0625 "/></g></g><g style="fill:#ffffff;fill-opacity:1;"><g transform="translate(195.066842, 259.57116)"><path style="stroke:none" d="M 7.015625 0.109375 C 5.410156 0.109375 4.15625 -0.347656 3.25 -1.265625 C 2.351562 -2.191406 1.90625 -3.535156 1.90625 -5.296875 L 1.90625 -12.390625 L 3.21875 -12.390625 L 3.21875 -5.34375 C 3.21875 -3.90625 3.539062 -2.832031 4.1875 -2.125 C 4.84375 -1.414062 5.785156 -1.0625 7.015625 -1.0625 C 8.253906 -1.0625 9.195312 -1.414062 9.84375 -2.125 C 10.488281 -2.832031 10.8125 -3.90625 10.8125 -5.34375 L 10.8125 -12.390625 L 12.09375 -12.390625 L 12.09375 -5.296875 C 12.09375 -3.535156 11.644531 -2.191406 10.75 -1.265625 C 9.863281 -0.347656 8.617188 0.109375 7.015625 0.109375 Z M 7.015625 0.109375 "/></g></g><g style="fill:#ffffff;fill-opacity:1;"><g transform="translate(211.913516, 259.57116)"><path style="stroke:none" d="M 10.484375 0 L 7.640625 -3.984375 C 7.328125 -3.953125 7 -3.9375 6.65625 -3.9375 L 3.328125 -3.9375 L 3.328125 0 L 2.015625 0 L 2.015625 -12.390625 L 6.65625 -12.390625 C 8.238281 -12.390625 9.476562 -12.007812 10.375 -11.25 C 11.269531 -10.5 11.71875 -9.460938 11.71875 -8.140625 C 11.71875 -7.171875 11.472656 -6.351562 10.984375 -5.6875 C 10.492188 -5.019531 9.796875 -4.539062 8.890625 -4.25 L 11.921875 0 Z M 6.625 -5.046875 C 7.851562 -5.046875 8.789062 -5.316406 9.4375 -5.859375 C 10.082031 -6.398438 10.40625 -7.160156 10.40625 -8.140625 C 10.40625 -9.140625 10.082031 -9.910156 9.4375 -10.453125 C 8.789062 -10.992188 7.851562 -11.265625 6.625 -11.265625 L 3.328125 -11.265625 L 3.328125 -5.046875 Z M 6.625 -5.046875 "/></g></g><g style="fill:#ffffff;fill-opacity:1;"><g transform="translate(227.53921, 259.57116)"><path style="stroke:none" d=""/></g></g><g style="fill:#ffffff;fill-opacity:1;"><g transform="translate(235.007394, 259.57116)"><path style="stroke:none" d="M 9.828125 -6.390625 C 10.640625 -6.210938 11.265625 -5.859375 11.703125 -5.328125 C 12.148438 -4.804688 12.375 -4.132812 12.375 -3.3125 C 12.375 -2.25 11.976562 -1.429688 11.1875 -0.859375 C 10.40625 -0.285156 9.25 0 7.71875 0 L 2.015625 0 L 2.015625 -12.390625 L 7.359375 -12.390625 C 8.742188 -12.390625 9.816406 -12.113281 10.578125 -11.5625 C 11.335938 -11.007812 11.71875 -10.222656 11.71875 -9.203125 C 11.71875 -8.515625 11.546875 -7.929688 11.203125 -7.453125 C 10.867188 -6.984375 10.410156 -6.628906 9.828125 -6.390625 Z M 3.328125 -11.3125 L 3.328125 -6.8125 L 7.28125 -6.8125 C 8.28125 -6.8125 9.050781 -7.003906 9.59375 -7.390625 C 10.132812 -7.773438 10.40625 -8.332031 10.40625 -9.0625 C 10.40625 -9.789062 10.132812 -10.347656 9.59375 -10.734375 C 9.050781 -11.117188 8.28125 -11.3125 7.28125 -11.3125 Z M 7.703125 -1.078125 C 8.804688 -1.078125 9.640625 -1.265625 10.203125 -1.640625 C 10.773438 -2.023438 11.0625 -2.617188 11.0625 -3.421875 C 11.0625 -4.960938 9.941406 -5.734375 7.703125 -5.734375 L 3.328125 -5.734375 L 3.328125 -1.078125 Z M 7.703125 -1.078125 "/></g></g><g style="fill:#ffffff;fill-opacity:1;"><g transform="translate(251.181649, 259.57116)"><path style="stroke:none" d="M 7.4375 0.109375 C 6.207031 0.109375 5.09375 -0.164062 4.09375 -0.71875 C 3.101562 -1.269531 2.328125 -2.019531 1.765625 -2.96875 C 1.203125 -3.925781 0.921875 -5.003906 0.921875 -6.203125 C 0.921875 -7.390625 1.203125 -8.460938 1.765625 -9.421875 C 2.328125 -10.378906 3.101562 -11.128906 4.09375 -11.671875 C 5.09375 -12.222656 6.207031 -12.5 7.4375 -12.5 C 8.664062 -12.5 9.769531 -12.226562 10.75 -11.6875 C 11.738281 -11.144531 12.515625 -10.390625 13.078125 -9.421875 C 13.648438 -8.460938 13.9375 -7.390625 13.9375 -6.203125 C 13.9375 -5.003906 13.648438 -3.921875 13.078125 -2.953125 C 12.515625 -1.992188 11.738281 -1.242188 10.75 -0.703125 C 9.769531 -0.160156 8.664062 0.109375 7.4375 0.109375 Z M 7.4375 -1.0625 C 8.414062 -1.0625 9.300781 -1.28125 10.09375 -1.71875 C 10.882812 -2.164062 11.503906 -2.78125 11.953125 -3.5625 C 12.398438 -4.351562 12.625 -5.234375 12.625 -6.203125 C 12.625 -7.160156 12.398438 -8.03125 11.953125 -8.8125 C 11.503906 -9.601562 10.882812 -10.21875 10.09375 -10.65625 C 9.300781 -11.101562 8.414062 -11.328125 7.4375 -11.328125 C 6.457031 -11.328125 5.566406 -11.101562 4.765625 -10.65625 C 3.972656 -10.21875 3.347656 -9.601562 2.890625 -8.8125 C 2.441406 -8.03125 2.21875 -7.160156 2.21875 -6.203125 C 2.21875 -5.234375 2.441406 -4.351562 2.890625 -3.5625 C 3.347656 -2.78125 3.972656 -2.164062 4.765625 -1.71875 C 5.566406 -1.28125 6.457031 -1.0625 7.4375 -1.0625 Z M 7.4375 -1.0625 "/></g></g><g style="fill:#ffffff;fill-opacity:1;"><g transform="translate(268.86, 259.57116)"><path style="stroke:none" d="M 7.4375 0.109375 C 6.207031 0.109375 5.09375 -0.164062 4.09375 -0.71875 C 3.101562 -1.269531 2.328125 -2.019531 1.765625 -2.96875 C 1.203125 -3.925781 0.921875 -5.003906 0.921875 -6.203125 C 0.921875 -7.390625 1.203125 -8.460938 1.765625 -9.421875 C 2.328125 -10.378906 3.101562 -11.128906 4.09375 -11.671875 C 5.09375 -12.222656 6.207031 -12.5 7.4375 -12.5 C 8.664062 -12.5 9.769531 -12.226562 10.75 -11.6875 C 11.738281 -11.144531 12.515625 -10.390625 13.078125 -9.421875 C 13.648438 -8.460938 13.9375 -7.390625 13.9375 -6.203125 C 13.9375 -5.003906 13.648438 -3.921875 13.078125 -2.953125 C 12.515625 -1.992188 11.738281 -1.242188 10.75 -0.703125 C 9.769531 -0.160156 8.664062 0.109375 7.4375 0.109375 Z M 7.4375 -1.0625 C 8.414062 -1.0625 9.300781 -1.28125 10.09375 -1.71875 C 10.882812 -2.164062 11.503906 -2.78125 11.953125 -3.5625 C 12.398438 -4.351562 12.625 -5.234375 12.625 -6.203125 C 12.625 -7.160156 12.398438 -8.03125 11.953125 -8.8125 C 11.503906 -9.601562 10.882812 -10.21875 10.09375 -10.65625 C 9.300781 -11.101562 8.414062 -11.328125 7.4375 -11.328125 C 6.457031 -11.328125 5.566406 -11.101562 4.765625 -10.65625 C 3.972656 -10.21875 3.347656 -9.601562 2.890625 -8.8125 C 2.441406 -8.03125 2.21875 -7.160156 2.21875 -6.203125 C 2.21875 -5.234375 2.441406 -4.351562 2.890625 -3.5625 C 3.347656 -2.78125 3.972656 -2.164062 4.765625 -1.71875 C 5.566406 -1.28125 6.457031 -1.0625 7.4375 -1.0625 Z M 7.4375 -1.0625 "/></g></g><g style="fill:#ffffff;fill-opacity:1;"><g transform="translate(286.538339, 259.57116)"><path style="stroke:none" d="M 5.859375 -5.828125 L 3.328125 -3.25 L 3.328125 0 L 2.015625 0 L 2.015625 -12.390625 L 3.328125 -12.390625 L 3.328125 -4.90625 L 10.609375 -12.390625 L 12.109375 -12.390625 L 6.75 -6.78125 L 12.484375 0 L 10.921875 0 Z M 5.859375 -5.828125 "/></g></g><g style="fill:#ffffff;fill-opacity:1;"><g transform="translate(111.394032, 285.200753)"><path style="stroke:none" d="M 1.734375 0 L 1.734375 -11.421875 L 5.875 -11.421875 C 6.644531 -11.421875 7.289062 -11.296875 7.8125 -11.046875 C 8.332031 -10.796875 8.722656 -10.4375 8.984375 -9.96875 C 9.242188 -9.507812 9.375 -8.96875 9.375 -8.34375 C 9.375 -7.632812 9.195312 -7.046875 8.84375 -6.578125 C 8.488281 -6.117188 7.9375 -5.773438 7.1875 -5.546875 L 7.1875 -5.390625 C 7.550781 -5.242188 7.847656 -5.015625 8.078125 -4.703125 C 8.316406 -4.390625 8.535156 -3.921875 8.734375 -3.296875 L 9.796875 0 L 8.40625 0 L 7.265625 -3.5 C 7.128906 -3.90625 6.972656 -4.222656 6.796875 -4.453125 C 6.617188 -4.691406 6.394531 -4.863281 6.125 -4.96875 C 5.851562 -5.070312 5.507812 -5.125 5.09375 -5.125 L 3.078125 -5.125 L 3.078125 0 Z M 5.84375 -6.265625 C 6.5625 -6.265625 7.09375 -6.429688 7.4375 -6.765625 C 7.789062 -7.097656 7.96875 -7.601562 7.96875 -8.28125 C 7.96875 -8.957031 7.789062 -9.457031 7.4375 -9.78125 C 7.09375 -10.113281 6.5625 -10.28125 5.84375 -10.28125 L 3.078125 -10.28125 L 3.078125 -6.265625 Z M 5.84375 -6.265625 "/></g></g><g style="fill:#ffffff;fill-opacity:1;"><g transform="translate(121.743049, 285.200753)"><path style="stroke:none" d="M 8.21875 -4.015625 L 2.296875 -4.015625 C 2.328125 -2.972656 2.578125 -2.207031 3.046875 -1.71875 C 3.515625 -1.226562 4.15625 -0.984375 4.96875 -0.984375 C 5.582031 -0.984375 6.078125 -1.09375 6.453125 -1.3125 C 6.828125 -1.53125 7.117188 -1.875 7.328125 -2.34375 L 7.5 -2.34375 L 8.328125 -1.84375 C 8.078125 -1.21875 7.675781 -0.722656 7.125 -0.359375 C 6.570312 -0.00390625 5.851562 0.171875 4.96875 0.171875 C 4.132812 0.171875 3.414062 0.00390625 2.8125 -0.328125 C 2.21875 -0.660156 1.757812 -1.160156 1.4375 -1.828125 C 1.113281 -2.492188 0.953125 -3.320312 0.953125 -4.3125 C 0.953125 -5.289062 1.117188 -6.113281 1.453125 -6.78125 C 1.796875 -7.457031 2.265625 -7.957031 2.859375 -8.28125 C 3.453125 -8.613281 4.128906 -8.78125 4.890625 -8.78125 C 5.992188 -8.78125 6.851562 -8.46875 7.46875 -7.84375 C 8.09375 -7.226562 8.40625 -6.304688 8.40625 -5.078125 C 8.40625 -4.597656 8.394531 -4.273438 8.375 -4.109375 Z M 7.15625 -5.078125 C 7.132812 -5.992188 6.929688 -6.660156 6.546875 -7.078125 C 6.160156 -7.492188 5.609375 -7.703125 4.890625 -7.703125 C 4.128906 -7.703125 3.535156 -7.492188 3.109375 -7.078125 C 2.679688 -6.660156 2.421875 -5.992188 2.328125 -5.078125 Z M 7.15625 -5.078125 "/></g></g><g style="fill:#ffffff;fill-opacity:1;"><g transform="translate(130.928306, 285.200753)"><path style="stroke:none" d="M 3.5625 0.171875 C 2.707031 0.171875 2.039062 -0.0507812 1.5625 -0.5 C 1.09375 -0.945312 0.859375 -1.582031 0.859375 -2.40625 C 0.859375 -2.914062 0.960938 -3.34375 1.171875 -3.6875 C 1.378906 -4.039062 1.703125 -4.328125 2.140625 -4.546875 C 2.585938 -4.773438 3.171875 -4.945312 3.890625 -5.0625 C 4.515625 -5.164062 4.988281 -5.28125 5.3125 -5.40625 C 5.632812 -5.539062 5.851562 -5.6875 5.96875 -5.84375 C 6.082031 -6.007812 6.140625 -6.21875 6.140625 -6.46875 C 6.140625 -6.851562 6.003906 -7.148438 5.734375 -7.359375 C 5.460938 -7.566406 5.03125 -7.671875 4.4375 -7.671875 C 3.882812 -7.671875 3.40625 -7.5625 3 -7.34375 C 2.601562 -7.132812 2.238281 -6.816406 1.90625 -6.390625 L 1.75 -6.390625 L 1.125 -7.265625 C 1.488281 -7.734375 1.953125 -8.101562 2.515625 -8.375 C 3.078125 -8.644531 3.71875 -8.78125 4.4375 -8.78125 C 5.457031 -8.78125 6.207031 -8.554688 6.6875 -8.109375 C 7.164062 -7.671875 7.40625 -7.054688 7.40625 -6.265625 L 7.40625 -1.703125 C 7.40625 -1.222656 7.609375 -0.984375 8.015625 -0.984375 C 8.148438 -0.984375 8.28125 -1.003906 8.40625 -1.046875 L 8.515625 -1.015625 L 8.671875 -0.140625 C 8.578125 -0.078125 8.453125 -0.03125 8.296875 0 C 8.140625 0.0390625 7.984375 0.0625 7.828125 0.0625 C 7.347656 0.0625 6.988281 -0.0390625 6.75 -0.25 C 6.507812 -0.457031 6.351562 -0.765625 6.28125 -1.171875 L 6.125 -1.1875 C 5.875 -0.738281 5.539062 -0.398438 5.125 -0.171875 C 4.707031 0.0546875 4.1875 0.171875 3.5625 0.171875 Z M 3.84375 -0.859375 C 4.320312 -0.859375 4.734375 -0.96875 5.078125 -1.1875 C 5.429688 -1.40625 5.703125 -1.710938 5.890625 -2.109375 C 6.078125 -2.515625 6.171875 -2.984375 6.171875 -3.515625 L 6.171875 -4.609375 L 6.03125 -4.640625 C 5.832031 -4.503906 5.59375 -4.390625 5.3125 -4.296875 C 5.039062 -4.203125 4.660156 -4.117188 4.171875 -4.046875 C 3.671875 -3.984375 3.269531 -3.878906 2.96875 -3.734375 C 2.675781 -3.597656 2.46875 -3.421875 2.34375 -3.203125 C 2.21875 -2.984375 2.15625 -2.71875 2.15625 -2.40625 C 2.15625 -1.894531 2.300781 -1.507812 2.59375 -1.25 C 2.894531 -0.988281 3.3125 -0.859375 3.84375 -0.859375 Z M 3.84375 -0.859375 "/></g></g><g style="fill:#ffffff;fill-opacity:1;"><g transform="translate(139.840197, 285.200753)"><path style="stroke:none" d="M 4.46875 0.171875 C 3.78125 0.171875 3.171875 0.00390625 2.640625 -0.328125 C 2.109375 -0.660156 1.691406 -1.160156 1.390625 -1.828125 C 1.097656 -2.492188 0.953125 -3.320312 0.953125 -4.3125 C 0.953125 -5.289062 1.109375 -6.113281 1.421875 -6.78125 C 1.734375 -7.457031 2.160156 -7.957031 2.703125 -8.28125 C 3.253906 -8.613281 3.894531 -8.78125 4.625 -8.78125 C 5.195312 -8.78125 5.710938 -8.671875 6.171875 -8.453125 C 6.628906 -8.242188 7.019531 -7.890625 7.34375 -7.390625 L 7.515625 -7.421875 L 7.515625 -12.078125 L 8.78125 -12.078125 L 8.78125 0 L 7.515625 0 L 7.515625 -1.265625 L 7.34375 -1.296875 C 7.0625 -0.867188 6.679688 -0.515625 6.203125 -0.234375 C 5.722656 0.0351562 5.144531 0.171875 4.46875 0.171875 Z M 4.875 -0.984375 C 5.675781 -0.984375 6.316406 -1.253906 6.796875 -1.796875 C 7.273438 -2.347656 7.515625 -3.1875 7.515625 -4.3125 C 7.515625 -5.4375 7.273438 -6.269531 6.796875 -6.8125 C 6.316406 -7.363281 5.675781 -7.640625 4.875 -7.640625 C 4.039062 -7.640625 3.398438 -7.367188 2.953125 -6.828125 C 2.503906 -6.296875 2.28125 -5.457031 2.28125 -4.3125 C 2.28125 -2.09375 3.144531 -0.984375 4.875 -0.984375 Z M 4.875 -0.984375 "/></g></g><g style="fill:#ffffff;fill-opacity:1;"><g transform="translate(150.126753, 285.200753)"><path style="stroke:none" d="M 0.5 2.390625 C 0.945312 2.085938 1.328125 1.738281 1.640625 1.34375 C 1.953125 0.957031 2.113281 0.53125 2.125 0.0625 C 1.820312 0.0625 1.582031 -0.0195312 1.40625 -0.1875 C 1.226562 -0.351562 1.140625 -0.578125 1.140625 -0.859375 C 1.140625 -1.128906 1.222656 -1.347656 1.390625 -1.515625 C 1.566406 -1.691406 1.796875 -1.78125 2.078125 -1.78125 C 2.378906 -1.78125 2.625 -1.671875 2.8125 -1.453125 C 3.007812 -1.242188 3.109375 -0.910156 3.109375 -0.453125 C 3.109375 0.359375 2.929688 1.039062 2.578125 1.59375 C 2.234375 2.15625 1.71875 2.664062 1.03125 3.125 Z M 0.5 2.390625 "/></g></g><g style="fill:#ffffff;fill-opacity:1;"><g transform="translate(154.36791, 285.200753)"><path style="stroke:none" d="M 5 0.171875 C 4.28125 0.171875 3.632812 0.0703125 3.0625 -0.125 C 2.488281 -0.320312 2.007812 -0.578125 1.625 -0.890625 C 1.25 -1.210938 0.96875 -1.566406 0.78125 -1.953125 L 1.515625 -2.84375 L 1.71875 -2.84375 C 2.425781 -1.644531 3.519531 -1.046875 5 -1.046875 C 5.851562 -1.046875 6.488281 -1.222656 6.90625 -1.578125 C 7.332031 -1.941406 7.546875 -2.445312 7.546875 -3.09375 C 7.546875 -3.46875 7.472656 -3.785156 7.328125 -4.046875 C 7.191406 -4.304688 6.960938 -4.523438 6.640625 -4.703125 C 6.328125 -4.890625 5.898438 -5.050781 5.359375 -5.1875 L 4.015625 -5.515625 C 3.023438 -5.753906 2.289062 -6.132812 1.8125 -6.65625 C 1.34375 -7.1875 1.109375 -7.851562 1.109375 -8.65625 C 1.109375 -9.21875 1.253906 -9.722656 1.546875 -10.171875 C 1.835938 -10.617188 2.265625 -10.96875 2.828125 -11.21875 C 3.390625 -11.46875 4.0625 -11.59375 4.84375 -11.59375 C 5.707031 -11.59375 6.429688 -11.46875 7.015625 -11.21875 C 7.609375 -10.976562 8.082031 -10.617188 8.4375 -10.140625 L 7.78125 -9.25 L 7.59375 -9.25 C 7.257812 -9.65625 6.867188 -9.953125 6.421875 -10.140625 C 5.972656 -10.328125 5.445312 -10.421875 4.84375 -10.421875 C 4.050781 -10.421875 3.453125 -10.265625 3.046875 -9.953125 C 2.648438 -9.648438 2.453125 -9.226562 2.453125 -8.6875 C 2.453125 -8.164062 2.597656 -7.753906 2.890625 -7.453125 C 3.191406 -7.148438 3.691406 -6.914062 4.390625 -6.75 L 5.765625 -6.421875 C 6.867188 -6.160156 7.671875 -5.757812 8.171875 -5.21875 C 8.671875 -4.675781 8.921875 -3.988281 8.921875 -3.15625 C 8.921875 -2.507812 8.773438 -1.9375 8.484375 -1.4375 C 8.191406 -0.9375 7.75 -0.539062 7.15625 -0.25 C 6.570312 0.03125 5.851562 0.171875 5 0.171875 Z M 5 0.171875 "/></g></g><g style="fill:#ffffff;fill-opacity:1;"><g transform="translate(164.154587, 285.200753)"><path style="stroke:none" d="M 1.5 0 L 1.5 -12.078125 L 2.78125 -12.078125 L 2.78125 -7.390625 L 2.9375 -7.359375 C 3.550781 -8.304688 4.441406 -8.78125 5.609375 -8.78125 C 6.640625 -8.78125 7.390625 -8.515625 7.859375 -7.984375 C 8.328125 -7.460938 8.5625 -6.648438 8.5625 -5.546875 L 8.5625 0 L 7.28125 0 L 7.28125 -5.515625 C 7.28125 -6.035156 7.210938 -6.453125 7.078125 -6.765625 C 6.953125 -7.085938 6.75 -7.316406 6.46875 -7.453125 C 6.1875 -7.597656 5.820312 -7.671875 5.375 -7.671875 C 4.59375 -7.671875 3.960938 -7.414062 3.484375 -6.90625 C 3.015625 -6.40625 2.78125 -5.578125 2.78125 -4.421875 L 2.78125 0 Z M 1.5 0 "/></g></g><g style="fill:#ffffff;fill-opacity:1;"><g transform="translate(174.07404, 285.200753)"><path style="stroke:none" d="M 3.5625 0.171875 C 2.707031 0.171875 2.039062 -0.0507812 1.5625 -0.5 C 1.09375 -0.945312 0.859375 -1.582031 0.859375 -2.40625 C 0.859375 -2.914062 0.960938 -3.34375 1.171875 -3.6875 C 1.378906 -4.039062 1.703125 -4.328125 2.140625 -4.546875 C 2.585938 -4.773438 3.171875 -4.945312 3.890625 -5.0625 C 4.515625 -5.164062 4.988281 -5.28125 5.3125 -5.40625 C 5.632812 -5.539062 5.851562 -5.6875 5.96875 -5.84375 C 6.082031 -6.007812 6.140625 -6.21875 6.140625 -6.46875 C 6.140625 -6.851562 6.003906 -7.148438 5.734375 -7.359375 C 5.460938 -7.566406 5.03125 -7.671875 4.4375 -7.671875 C 3.882812 -7.671875 3.40625 -7.5625 3 -7.34375 C 2.601562 -7.132812 2.238281 -6.816406 1.90625 -6.390625 L 1.75 -6.390625 L 1.125 -7.265625 C 1.488281 -7.734375 1.953125 -8.101562 2.515625 -8.375 C 3.078125 -8.644531 3.71875 -8.78125 4.4375 -8.78125 C 5.457031 -8.78125 6.207031 -8.554688 6.6875 -8.109375 C 7.164062 -7.671875 7.40625 -7.054688 7.40625 -6.265625 L 7.40625 -1.703125 C 7.40625 -1.222656 7.609375 -0.984375 8.015625 -0.984375 C 8.148438 -0.984375 8.28125 -1.003906 8.40625 -1.046875 L 8.515625 -1.015625 L 8.671875 -0.140625 C 8.578125 -0.078125 8.453125 -0.03125 8.296875 0 C 8.140625 0.0390625 7.984375 0.0625 7.828125 0.0625 C 7.347656 0.0625 6.988281 -0.0390625 6.75 -0.25 C 6.507812 -0.457031 6.351562 -0.765625 6.28125 -1.171875 L 6.125 -1.1875 C 5.875 -0.738281 5.539062 -0.398438 5.125 -0.171875 C 4.707031 0.0546875 4.1875 0.171875 3.5625 0.171875 Z M 3.84375 -0.859375 C 4.320312 -0.859375 4.734375 -0.96875 5.078125 -1.1875 C 5.429688 -1.40625 5.703125 -1.710938 5.890625 -2.109375 C 6.078125 -2.515625 6.171875 -2.984375 6.171875 -3.515625 L 6.171875 -4.609375 L 6.03125 -4.640625 C 5.832031 -4.503906 5.59375 -4.390625 5.3125 -4.296875 C 5.039062 -4.203125 4.660156 -4.117188 4.171875 -4.046875 C 3.671875 -3.984375 3.269531 -3.878906 2.96875 -3.734375 C 2.675781 -3.597656 2.46875 -3.421875 2.34375 -3.203125 C 2.21875 -2.984375 2.15625 -2.71875 2.15625 -2.40625 C 2.15625 -1.894531 2.300781 -1.507812 2.59375 -1.25 C 2.894531 -0.988281 3.3125 -0.859375 3.84375 -0.859375 Z M 3.84375 -0.859375 "/></g></g><g style="fill:#ffffff;fill-opacity:1;"><g transform="translate(182.985931, 285.200753)"><path style="stroke:none" d="M 1.5 0 L 1.5 -8.625 L 2.71875 -8.625 L 2.71875 -7.265625 L 2.875 -7.234375 C 3.28125 -8.210938 4.035156 -8.703125 5.140625 -8.703125 C 5.734375 -8.703125 6.175781 -8.59375 6.46875 -8.375 L 6.140625 -7.296875 L 5.984375 -7.265625 C 5.660156 -7.429688 5.304688 -7.515625 4.921875 -7.515625 C 4.234375 -7.515625 3.703125 -7.253906 3.328125 -6.734375 C 2.960938 -6.222656 2.78125 -5.390625 2.78125 -4.234375 L 2.78125 0 Z M 1.5 0 "/></g></g><g style="fill:#ffffff;fill-opacity:1;"><g transform="translate(189.414031, 285.200753)"><path style="stroke:none" d="M 8.21875 -4.015625 L 2.296875 -4.015625 C 2.328125 -2.972656 2.578125 -2.207031 3.046875 -1.71875 C 3.515625 -1.226562 4.15625 -0.984375 4.96875 -0.984375 C 5.582031 -0.984375 6.078125 -1.09375 6.453125 -1.3125 C 6.828125 -1.53125 7.117188 -1.875 7.328125 -2.34375 L 7.5 -2.34375 L 8.328125 -1.84375 C 8.078125 -1.21875 7.675781 -0.722656 7.125 -0.359375 C 6.570312 -0.00390625 5.851562 0.171875 4.96875 0.171875 C 4.132812 0.171875 3.414062 0.00390625 2.8125 -0.328125 C 2.21875 -0.660156 1.757812 -1.160156 1.4375 -1.828125 C 1.113281 -2.492188 0.953125 -3.320312 0.953125 -4.3125 C 0.953125 -5.289062 1.117188 -6.113281 1.453125 -6.78125 C 1.796875 -7.457031 2.265625 -7.957031 2.859375 -8.28125 C 3.453125 -8.613281 4.128906 -8.78125 4.890625 -8.78125 C 5.992188 -8.78125 6.851562 -8.46875 7.46875 -7.84375 C 8.09375 -7.226562 8.40625 -6.304688 8.40625 -5.078125 C 8.40625 -4.597656 8.394531 -4.273438 8.375 -4.109375 Z M 7.15625 -5.078125 C 7.132812 -5.992188 6.929688 -6.660156 6.546875 -7.078125 C 6.160156 -7.492188 5.609375 -7.703125 4.890625 -7.703125 C 4.128906 -7.703125 3.535156 -7.492188 3.109375 -7.078125 C 2.679688 -6.660156 2.421875 -5.992188 2.328125 -5.078125 Z M 7.15625 -5.078125 "/></g></g><g style="fill:#ffffff;fill-opacity:1;"><g transform="translate(198.302462, 285.200753)"><path style="stroke:none" d="M 0.5 2.390625 C 0.945312 2.085938 1.328125 1.738281 1.640625 1.34375 C 1.953125 0.957031 2.113281 0.53125 2.125 0.0625 C 1.820312 0.0625 1.582031 -0.0195312 1.40625 -0.1875 C 1.226562 -0.351562 1.140625 -0.578125 1.140625 -0.859375 C 1.140625 -1.128906 1.222656 -1.347656 1.390625 -1.515625 C 1.566406 -1.691406 1.796875 -1.78125 2.078125 -1.78125 C 2.378906 -1.78125 2.625 -1.671875 2.8125 -1.453125 C 3.007812 -1.242188 3.109375 -0.910156 3.109375 -0.453125 C 3.109375 0.359375 2.929688 1.039062 2.578125 1.59375 C 2.234375 2.15625 1.71875 2.664062 1.03125 3.125 Z M 0.5 2.390625 "/></g></g><g style="fill:#ffffff;fill-opacity:1;"><g transform="translate(202.543619, 285.200753)"><path style="stroke:none" d="M 3.078125 -5.390625 L 3.078125 -1.109375 L 8.890625 -1.109375 L 8.890625 0 L 1.734375 0 L 1.734375 -11.421875 L 8.765625 -11.421875 L 8.765625 -10.3125 L 3.078125 -10.3125 L 3.078125 -6.5 L 8.09375 -6.5 L 8.09375 -5.390625 Z M 3.078125 -5.390625 "/></g></g><g style="fill:#ffffff;fill-opacity:1;"><g transform="translate(212.189706, 285.200753)"><path style="stroke:none" d="M 1.796875 0 L 0.390625 0 L 3.0625 -4.46875 L 0.53125 -8.625 L 1.96875 -8.625 L 3.953125 -5.3125 L 4.140625 -5.3125 L 6.140625 -8.625 L 7.515625 -8.625 L 5.046875 -4.46875 L 7.640625 0 L 6.203125 0 L 4.078125 -3.640625 L 3.90625 -3.640625 Z M 1.796875 0 "/></g></g><g style="fill:#ffffff;fill-opacity:1;"><g transform="translate(220.218995, 285.200753)"><path style="stroke:none" d="M 1.5 3.5 L 1.5 -8.625 L 2.78125 -8.625 L 2.78125 -7.328125 L 2.9375 -7.296875 C 3.582031 -8.285156 4.523438 -8.78125 5.765625 -8.78125 C 6.484375 -8.78125 7.109375 -8.613281 7.640625 -8.28125 C 8.179688 -7.957031 8.597656 -7.460938 8.890625 -6.796875 C 9.191406 -6.128906 9.34375 -5.300781 9.34375 -4.3125 C 9.34375 -3.320312 9.1875 -2.492188 8.875 -1.828125 C 8.5625 -1.160156 8.128906 -0.660156 7.578125 -0.328125 C 7.023438 0.00390625 6.390625 0.171875 5.671875 0.171875 C 5.085938 0.171875 4.566406 0.0664062 4.109375 -0.140625 C 3.660156 -0.347656 3.269531 -0.679688 2.9375 -1.140625 L 2.78125 -1.109375 L 2.78125 3.5 Z M 5.390625 -0.984375 C 7.128906 -0.984375 8 -2.09375 8 -4.3125 C 8 -6.53125 7.128906 -7.640625 5.390625 -7.640625 C 4.878906 -7.640625 4.425781 -7.519531 4.03125 -7.28125 C 3.644531 -7.050781 3.335938 -6.6875 3.109375 -6.1875 C 2.890625 -5.695312 2.78125 -5.070312 2.78125 -4.3125 C 2.78125 -3.550781 2.890625 -2.921875 3.109375 -2.421875 C 3.335938 -1.929688 3.644531 -1.566406 4.03125 -1.328125 C 4.425781 -1.097656 4.878906 -0.984375 5.390625 -0.984375 Z M 5.390625 -0.984375 "/></g></g><g style="fill:#ffffff;fill-opacity:1;"><g transform="translate(230.497734, 285.200753)"><path style="stroke:none" d="M 3.4375 0.171875 C 2.820312 0.171875 2.335938 0 1.984375 -0.34375 C 1.640625 -0.695312 1.46875 -1.21875 1.46875 -1.90625 L 1.46875 -12.078125 L 2.75 -12.078125 L 2.75 -2 C 2.75 -1.632812 2.816406 -1.375 2.953125 -1.21875 C 3.085938 -1.0625 3.300781 -0.984375 3.59375 -0.984375 C 3.769531 -0.984375 3.953125 -1.007812 4.140625 -1.0625 L 4.25 -1.03125 L 4.390625 -0.03125 C 4.296875 0.03125 4.160156 0.078125 3.984375 0.109375 C 3.816406 0.148438 3.632812 0.171875 3.4375 0.171875 Z M 3.4375 0.171875 "/></g></g><g style="fill:#ffffff;fill-opacity:1;"><g transform="translate(235.18409, 285.200753)"><path style="stroke:none" d="M 4.953125 0.171875 C 4.140625 0.171875 3.429688 0 2.828125 -0.34375 C 2.222656 -0.695312 1.757812 -1.207031 1.4375 -1.875 C 1.113281 -2.539062 0.953125 -3.351562 0.953125 -4.3125 C 0.953125 -5.257812 1.113281 -6.066406 1.4375 -6.734375 C 1.757812 -7.410156 2.222656 -7.921875 2.828125 -8.265625 C 3.429688 -8.609375 4.140625 -8.78125 4.953125 -8.78125 C 5.765625 -8.78125 6.46875 -8.609375 7.0625 -8.265625 C 7.664062 -7.921875 8.128906 -7.410156 8.453125 -6.734375 C 8.785156 -6.066406 8.953125 -5.257812 8.953125 -4.3125 C 8.953125 -3.351562 8.785156 -2.539062 8.453125 -1.875 C 8.128906 -1.207031 7.664062 -0.695312 7.0625 -0.34375 C 6.46875 0 5.765625 0.171875 4.953125 0.171875 Z M 4.953125 -0.984375 C 5.804688 -0.984375 6.460938 -1.253906 6.921875 -1.796875 C 7.378906 -2.335938 7.609375 -3.175781 7.609375 -4.3125 C 7.609375 -5.445312 7.378906 -6.285156 6.921875 -6.828125 C 6.460938 -7.367188 5.804688 -7.640625 4.953125 -7.640625 C 4.085938 -7.640625 3.425781 -7.367188 2.96875 -6.828125 C 2.507812 -6.285156 2.28125 -5.445312 2.28125 -4.3125 C 2.28125 -3.175781 2.507812 -2.335938 2.96875 -1.796875 C 3.425781 -1.253906 4.085938 -0.984375 4.953125 -0.984375 Z M 4.953125 -0.984375 "/></g></g><g style="fill:#ffffff;fill-opacity:1;"><g transform="translate(245.072299, 285.200753)"><path style="stroke:none" d="M 1.5 0 L 1.5 -8.625 L 2.71875 -8.625 L 2.71875 -7.265625 L 2.875 -7.234375 C 3.28125 -8.210938 4.035156 -8.703125 5.140625 -8.703125 C 5.734375 -8.703125 6.175781 -8.59375 6.46875 -8.375 L 6.140625 -7.296875 L 5.984375 -7.265625 C 5.660156 -7.429688 5.304688 -7.515625 4.921875 -7.515625 C 4.234375 -7.515625 3.703125 -7.253906 3.328125 -6.734375 C 2.960938 -6.222656 2.78125 -5.390625 2.78125 -4.234375 L 2.78125 0 Z M 1.5 0 "/></g></g><g style="fill:#ffffff;fill-opacity:1;"><g transform="translate(251.500399, 285.200753)"><path style="stroke:none" d="M 8.21875 -4.015625 L 2.296875 -4.015625 C 2.328125 -2.972656 2.578125 -2.207031 3.046875 -1.71875 C 3.515625 -1.226562 4.15625 -0.984375 4.96875 -0.984375 C 5.582031 -0.984375 6.078125 -1.09375 6.453125 -1.3125 C 6.828125 -1.53125 7.117188 -1.875 7.328125 -2.34375 L 7.5 -2.34375 L 8.328125 -1.84375 C 8.078125 -1.21875 7.675781 -0.722656 7.125 -0.359375 C 6.570312 -0.00390625 5.851562 0.171875 4.96875 0.171875 C 4.132812 0.171875 3.414062 0.00390625 2.8125 -0.328125 C 2.21875 -0.660156 1.757812 -1.160156 1.4375 -1.828125 C 1.113281 -2.492188 0.953125 -3.320312 0.953125 -4.3125 C 0.953125 -5.289062 1.117188 -6.113281 1.453125 -6.78125 C 1.796875 -7.457031 2.265625 -7.957031 2.859375 -8.28125 C 3.453125 -8.613281 4.128906 -8.78125 4.890625 -8.78125 C 5.992188 -8.78125 6.851562 -8.46875 7.46875 -7.84375 C 8.09375 -7.226562 8.40625 -6.304688 8.40625 -5.078125 C 8.40625 -4.597656 8.394531 -4.273438 8.375 -4.109375 Z M 7.15625 -5.078125 C 7.132812 -5.992188 6.929688 -6.660156 6.546875 -7.078125 C 6.160156 -7.492188 5.609375 -7.703125 4.890625 -7.703125 C 4.128906 -7.703125 3.535156 -7.492188 3.109375 -7.078125 C 2.679688 -6.660156 2.421875 -5.992188 2.328125 -5.078125 Z M 7.15625 -5.078125 "/></g></g></g></svg>